# AST/ASF file generated using VICON BodyLanguage
# -----------------------------------------------
:version 1.10
:name VICON
:units
  mass 1.0
  length 0.45
  angle deg
:documentation
   .ast/.asf automatically generated from VICON data using
   VICON BodyBuilder and BodyLanguage model FoxedUp or BRILLIANT.MOD
:root
   order TX TY TZ RX RY RZ
   axis XYZ
   position 0 0 0  
   orientation 0 0 0 
:bonedata
  begin
     id 1 
     name lhipjoint
     direction 0.560651 -0.75055 0.34978 
     length 2.44936 
     axis 0 0 0  XYZ
  end
  begin
     id 2 
     name lfemur
     direction 0.34202 -0.939693 0  
     length 7.42139  
     axis 0 0 20  XYZ
    dof rx ry rz
    limits (-160.0 20.0)
           (-70.0 70.0)
           (-60.0 70.0)
  end
  begin
     id 3 
     name ltibia
     direction 0.34202 -0.939693 0   
     length 7.75674   
     axis 0 0 20   XYZ
    dof rx
    limits (-10.0 170.0)
  end
  begin
     id 4 
     name lfoot
     direction 0.0925879 -0.254383 0.962661   
     length 2.38688   
     axis -90 7.62852e-016 20   XYZ
    dof rx rz
    limits (-45.0 90.0)
           (-70.0 20.0)
  end
  begin
     id 5 
     name ltoes
     direction 1.53567e-011 -4.21973e-011 1   
     length 1.19228   
     axis -90 7.62852e-016 20   XYZ
    dof rx
    limits (-90.0 20.0)
  end
  begin
     id 6 
     name rhipjoint
     direction -0.540087 -0.762838 0.355506   
     length 2.4099  
     axis 0 0 0  XYZ 
  end
  begin
     id 7 
     name rfemur
     direction -0.34202 -0.939693 0   
     length 7.70794   
     axis 0 0 -20   XYZ
    dof rx ry rz
    limits (-160.0 20.0)
           (-70.0 70.0)
           (-70.0 60.0)
  end
  begin
     id 8 
     name rtibia
     direction -0.34202 -0.939693 0   
     length 7.66106   
     axis 0 0 -20   XYZ
    dof rx
    limits (-10.0 170.0)
 end
 begin
     id 9 
     name rfoot
     direction -0.0830975 -0.228308 0.970036   
     length 2.4989  
     axis -90 -7.62852e-016 -20   XYZ
    dof rx rz
    limits (-45.0 90.0)
           (-20.0 70.0)
  end
  begin
     id 10 
     name rtoes
     direction -1.53517e-011 -4.21842e-011 1   
     length 1.2498   
     axis -90 -7.62852e-016 -20   XYZ
    dof rx
    limits (-90.0 20.0)
  end
  begin
     id 11 
     name lowerback
     direction 0.0266356 0.99402 -0.105896   
     length 2.1545   
     axis 0 0 0   XYZ
    dof rx ry rz
    limits (-20.0 45.0)
           (-30.0 30.0)
           (-30.0 30.0)
  end
  begin
     id 12 
     name upperback
     direction 0.0130547 0.999192 0.0380027   
     length 2.1434   
     axis 0 0 0   XYZ
    dof rx ry rz
    limits (-20.0 45.0)
           (-30.0 30.0)
           (-30.0 30.0)
  end
  begin
     id 13 
     name thorax
     direction 0.000590299 0.996288 0.0860764   
     length 2.19049   
     axis 0 0 0   XYZ
    dof rx ry rz
    limits (-20.0 45.0)
           (-30.0 30.0)
           (-30.0 30.0)
  end
  begin
     id 14 
     name lowerneck
     direction -0.0432125 0.978219 0.203028   
     length 1.62441   
     axis 0 0 0   XYZ
    dof rx ry rz
    limits (-20.0 45.0)
           (-30.0 30.0)
           (-30.0 30.0)
  end
  begin
     id 15 
     name upperneck
     direction -0.0192309 0.991699 -0.127138   
     length 1.66666   
     axis 0 0 0   XYZ
    dof rx ry rz
    limits (-20.0 45.0)
           (-30.0 30.0)
           (-30.0 30.0)
  end
  begin
     id 16
     name head
     direction -0.00434499 0.997882 -0.0649107  
     length 1.67142  
     axis 0 0 0   XYZ
    dof rx ry rz
    limits (-20.0 45.0)
           (-30.0 30.0)
           (-30.0 30.0)
  end
  begin
     id 17 
     name lclavicle
     direction 0.970351 0.240904 -0.0196058  
     length 4.04862  
     axis 0 0 0   XYZ
    dof ry rz
    limits (-20.0 10.0)
           (0.0 20.0)
  end
  begin
     id 18 
     name lhumerus
     direction 1 -4.4896e-011 -1.40911e-018   
     length 5.58345   
     axis 180 -30 -90   XYZ
    dof rx ry rz
    limits (-60.0 90.0)
           (-90.0 90.0)
           (-90.0 90.0)
  end
  begin
     id 19
     name lradius
     direction 1 -4.48968e-011 5.88912e-028   
     length 3.71087   
     axis 180 -30 -90   XYZ
    dof rx
    limits (-10.0 170.0)
  end
  begin
     id 20
     name lwrist
     direction 1 -4.48955e-011 -8.83775e-028   
     length 1.85544   
     axis 5.52448e-016 90 90   XYZ
    dof ry
    limits (-180.0 0.0)
 end
  begin
     id 21 
     name lhand
     direction 1 -4.49035e-011 -1.76755e-027   
     length 0.562322   
     axis 1.12785e-015 90 90   XYZ
    dof rx rz
    limits (-90.0 90.0)
           (-45.0 45.0)
  end
  begin
     id 22 
     name lfingers
     direction 1 -4.48824e-011 -3.5351e-027   
     length 0.453359   
     axis 2.2557e-015 90 90   XYZ
    dof rx
    limits (0.0 90.0)
  end
  begin
     id 23
     name lthumb
     direction 0.707107 -6.34888e-011 0.707107   
     length 0.650935   
     axis -90 45 2.85299e-015   XYZ
    dof rx rz
    limits (-45.0 45.0)
           (-45.0 45.0)
  end
  begin
     id 24 
     name rclavicle
     direction -0.96165 0.268562 -0.0557131   
     length 4.05446  
     axis 0 0 0   XYZ 
    dof ry rz
    limits (-10.0 20.0)
           (-20.0 0.0)
  end
  begin
     id 25 
     name rhumerus
     direction -1 -4.48957e-011 -3.36329e-027  
     length 5.20357   
     axis 180 30 90   XYZ
    dof rx ry rz
    limits (-90.0 60.0)
           (-90.0 90.0)
           (-90.0 90.0)
  end
  begin
     id 26 
     name rradius
     direction -1 -4.48974e-011 4.51441e-027   
     length 3.64937   
     axis 180 30 90   XYZ
    dof rx
    limits (-10.0 170.0)
  end
  begin
     id 27 
     name rwrist
     direction -1 -4.4896e-011 -8.83775e-028   
     length 1.82468   
     axis 5.52448e-016 -90 -90   XYZ
    dof ry
    limits (-180.0 0.0)
  end
  begin
     id 28
     name rhand
     direction -1 -4.48996e-011 -1.76755e-027   
     length 0.617996   
     axis 1.12785e-015 -90 -90   XYZ
    dof rx rz
    limits (-90.0 90.0)
           (-45.0 45.0)
  end
  begin
     id 29
     name rfingers
     direction -1 -4.48957e-011 -3.5351e-027   
     length 0.498244   
     axis 2.2557e-015 -90 -90   XYZ
    dof rx
    limits (0.0 90.0)
  end
  begin
     id 30
     name rthumb
     direction -0.707107 -6.34931e-011 0.707107   
     length 0.715382   
     axis -90 -45 -2.85299e-015   XYZ
    dof rx rz
    limits (-45.0 45.0)
           (-45.0 45.0)
  end
:hierarchy
  begin
    root lhipjoint rhipjoint lowerback
    lhipjoint lfemur
    lfemur ltibia
    ltibia lfoot
    lfoot ltoes
    rhipjoint rfemur
    rfemur rtibia
    rtibia rfoot
    rfoot rtoes
    lowerback upperback
    upperback thorax
    thorax lowerneck lclavicle rclavicle
    lowerneck upperneck
    upperneck head
    lclavicle lhumerus
    lhumerus lradius
    lradius lwrist
    lwrist lhand lthumb
    lhand lfingers
    rclavicle rhumerus
    rhumerus rradius
    rradius rwrist
    rwrist rhand rthumb
    rhand rfingers
  end

#!OML:ASF H:\ManfredETheater\Project 1\Capture day 2\Session 1\Male1.ASF
:FULLY-SPECIFIED
:DEGREES
17
root 7.0946 16.3533 -41.1338 14.9255 5.30509 6.354
lowerback 17.2581 0.0478189 -2.06597
upperback -1.56659 -0.41703 -0.401999
thorax -11.451 -0.0809064 0.844406
lowerneck -25.3041 -3.41753 -3.72208
upperneck 8.1579 -3.26101 -0.500758
head 6.54233 -1.74939 0.0129201
rclavicle 5.96354e-016 -9.54166e-015
rhumerus -55.7881 -0.351925 -86.6025
rradius 67.1014
rwrist -5.313
rhand -38.8542 4.94176
rfingers 7.12502
rthumb -11.8631 -24.7022
lclavicle 5.96354e-016 -9.54166e-015
lhumerus -42.9443 -6.60163 97.0038
lradius 104.865
lwrist 21.7278
lhand -25.1499 -7.87008
lfingers 7.12502
lthumb 1.36679 22.1053
rfemur -41.1604 -12.1531 13.3726
rtibia 102.098
rfoot -3.88578 -2.13174
rtoes -9.74509
lfemur -23.9815 1.07017 -28.5659
ltibia 53.8189
lfoot -29.5233 -10.4194
ltoes -2.08695
18
root 7.08882 16.355 -40.6345 14.7623 5.56729 6.51643
lowerback 17.326 -0.180129 -2.15214
upperback -1.60642 -0.730119 -0.307225
thorax -11.5236 -0.217602 1.08208
lowerneck -25.3972 -3.34749 -3.68037
upperneck 8.31454 -3.16222 -0.592083
head 6.60479 -1.71082 -0.0140476
rclavicle 1.23246e-014 -7.95139e-015
rhumerus -58.2243 -0.363302 -85.8612
rradius 67.628
rwrist -5.81688
rhand -38.6416 6.0043
rfingers 7.12502
rthumb -11.658 -23.6514
lclavicle 1.23246e-014 -7.95139e-015
lhumerus -40.3439 -7.71412 97.5352
lradius 106.679
lwrist 21.1037
lhand -25.5258 -7.24739
lfingers 7.12502
lthumb 1.00372 22.73
rfemur -44.3704 -12.5616 13.1907
rtibia 102.707
rfoot -4.65153 -1.93561
rtoes -8.67293
lfemur -20.844 0.779615 -28.3898
ltibia 51.9286
lfoot -29.4748 -10.4292
ltoes -3.76042
19
root 7.08711 16.3688 -40.1163 14.8014 5.79969 6.51718
lowerback 17.0972 -0.436042 -2.10415
upperback -1.78506 -1.03624 -0.11795
thorax -11.579 -0.355195 1.34306
lowerneck -25.2807 -3.19814 -3.6129
upperneck 8.47449 -2.95557 -0.8223
head 6.63369 -1.63307 -0.074318
rclavicle 1.55052e-014 2.06736e-014
rhumerus -60.7769 -0.00422844 -85.1576
rradius 68.4667
rwrist -6.23302
rhand -38.1889 7.31136
rfingers 7.12502
rthumb -11.2215 -22.3685
lclavicle 1.55052e-014 2.06736e-014
lhumerus -38.3017 -8.68868 98.0095
lradius 108.799
lwrist 20.6505
lhand -25.5976 -7.15595
lfingers 7.12502
lthumb 0.934377 22.8218
rfemur -47.6552 -12.8259 13.2627
rtibia 102.781
rfoot -5.53574 -1.90316
rtoes -8.83658
lfemur -17.8919 0.558891 -28.1166
ltibia 49.7504
lfoot -29.1844 -9.85371
ltoes -7.22287
20
root 7.07551 16.3973 -39.6002 14.7215 6.36593 6.60244
lowerback 17.192 -0.855203 -2.1188
upperback -1.99685 -1.5741 0.137355
thorax -11.8458 -0.590227 1.781
lowerneck -25.2117 -2.94512 -3.5038
upperneck 8.76324 -2.6064 -1.13862
head 6.71027 -1.49534 -0.153369
rclavicle 8.74653e-015 -3.18055e-015
rhumerus -63.342 0.675577 -84.6623
rradius 69.653
rwrist -6.15426
rhand -38.338 7.35221
rfingers 7.12502
rthumb -11.3653 -22.3198
lclavicle 8.74653e-015 -3.18055e-015
lhumerus -36.5651 -9.55267 98.3806
lradius 111.174
lwrist 20.9093
lhand -25.7501 -7.31939
lfingers 7.12502
lthumb 0.787093 22.6589
rfemur -50.5352 -13.2678 13.3728
rtibia 102.357
rfoot -6.47779 -2.00275
rtoes -8.99436
lfemur -14.6937 -0.103188 -27.7306
ltibia 47.3527
lfoot -28.2769 -10.0682
ltoes -8.98911
21
root 7.06532 16.4414 -39.0655 14.8781 6.91995 6.48842
lowerback 16.8924 -1.32049 -1.94693
upperback -2.26628 -2.1196 0.448577
thorax -11.9457 -0.841105 2.16852
lowerneck -25.2293 -2.60422 -3.23027
upperneck 9.14562 -2.16319 -1.60167
head 6.82892 -1.32251 -0.296706
rclavicle -5.1684e-015 7.95139e-015
rhumerus -65.7167 1.4706 -84.1969
rradius 70.8365
rwrist -6.22023
rhand -37.9163 7.77543
rfingers 7.12502
rthumb -10.9585 -21.9186
lclavicle -5.1684e-015 7.95139e-015
lhumerus -35.1604 -10.515 98.5486
lradius 113.773
lwrist 22.0575
lhand -25.3734 -7.42423
lfingers 7.12502
lthumb 1.15095 22.5524
rfemur -53.4437 -13.4789 13.7658
rtibia 101.444
rfoot -7.27826 -2.23716
rtoes -8.94467
lfemur -11.7156 -0.930493 -27.1537
ltibia 44.8122
lfoot -26.888 -10.1364
ltoes -11.7244
22
root 7.06138 16.4973 -38.5183 15.0706 7.43447 6.41875
lowerback 16.512 -1.85435 -1.73768
upperback -2.55214 -2.7499 0.75622
thorax -12.0104 -1.13537 2.54747
lowerneck -25.8722 -2.17669 -2.51469
upperneck 10.1521 -1.61551 -2.62337
head 7.24859 -1.1512 -0.695495
rclavicle 1.05356e-014 -7.95139e-016
rhumerus -68.2827 2.52093 -83.8387
rradius 72.6256
rwrist -6.33795
rhand -37.6113 7.93476
rfingers 7.12502
rthumb -10.6644 -21.7746
lclavicle 1.05356e-014 -7.95139e-016
lhumerus -33.9992 -11.4196 98.515
lradius 116.467
lwrist 23.8341
lhand -25.3021 -7.89304
lfingers 7.12502
lthumb 1.2198 22.0832
rfemur -56.1166 -13.622 14.0385
rtibia 100.03
rfoot -8.04443 -2.43442
rtoes -9.13416
lfemur -8.74818 -1.91782 -26.7133
ltibia 42.131
lfoot -24.919 -10.0417
ltoes -15.1236
23
root 7.05719 16.5639 -37.9667 15.4011 7.73786 6.30175
lowerback 16.0096 -2.32569 -1.54572
upperback -2.8565 -3.29982 1.08003
thorax -12.0228 -1.39202 2.92271
lowerneck -26.1995 -1.71072 -2.13555
upperneck 10.7313 -0.995019 -3.19817
head 7.4935 -0.909934 -0.87469
rclavicle -5.38706e-014 -7.15625e-015
rhumerus -70.135 3.60018 -83.4671
rradius 73.2026
rwrist -6.37012
rhand -37.3236 9.05178
rfingers 7.12502
rthumb -10.3868 -20.6717
lclavicle -5.38706e-014 -7.15625e-015
lhumerus -33.0534 -12.4409 98.2843
lradius 119.138
lwrist 25.7893
lhand -24.9995 -8.71986
lfingers 7.12502
lthumb 1.51205 21.2545
rfemur -58.7452 -13.459 14.3438
rtibia 98.2714
rfoot -8.63023 -2.73429
rtoes -9.40913
lfemur -6.04556 -2.66784 -26.2669
ltibia 39.4547
lfoot -22.4297 -10.1003
ltoes -18.797
24
root 7.05236 16.6453 -37.4001 15.6845 7.95973 6.10818
lowerback 15.4671 -2.75576 -1.29225
upperback -3.17985 -3.78241 1.42851
thorax -12.035 -1.62101 3.26597
lowerneck -26.2038 -1.2646 -1.89274
upperneck 11.1389 -0.39043 -3.63978
head 7.63799 -0.665229 -0.983685
rclavicle 2.10712e-014 1.90833e-014
rhumerus -72.2937 4.64008 -83.0536
rradius 74.5094
rwrist -6.37483
rhand -36.7193 8.04956
rfingers 7.12502
rthumb -9.80381 -21.7022
lclavicle 2.10712e-014 1.90833e-014
lhumerus -32.4225 -13.5425 98.023
lradius 121.794
lwrist 27.5446
lhand -24.8935 -8.88335
lfingers 7.12502
lthumb 1.61443 21.0903
rfemur -60.9669 -13.0068 14.6261
rtibia 95.8676
rfoot -8.89573 -3.03107
rtoes -10.5491
lfemur -3.29625 -3.45548 -25.7978
ltibia 36.6651
lfoot -19.2633 -10.0591
ltoes -22.8524
25
root 7.04877 16.7122 -36.8298 15.8497 7.86587 5.8896
lowerback 14.9738 -3.04556 -1.08554
upperback -3.43609 -4.09239 1.75156
thorax -12.0061 -1.76858 3.55994
lowerneck -26.2742 -0.842517 -1.70916
upperneck 11.4863 0.194621 -4.01534
head 7.77645 -0.426367 -1.06315
rclavicle 3.97569e-015 -1.90833e-014
rhumerus -74.1525 5.47783 -82.5594
rradius 75.4014
rwrist -6.31211
rhand -36.2565 8.17028
rfingers 7.12502
rthumb -9.35726 -21.602
lclavicle 3.97569e-015 -1.90833e-014
lhumerus -31.9787 -14.7168 97.6952
lradius 124.269
lwrist 28.6305
lhand -24.4713 -9.30917
lfingers 7.12502
lthumb 2.0222 20.661
rfemur -62.9049 -12.2286 14.7324
rtibia 93.257
rfoot -9.16878 -3.18983
rtoes -10.6879
lfemur -0.532314 -3.91372 -25.4229
ltibia 33.8135
lfoot -15.1899 -10.4994
ltoes -26.0635
